<?xml version="1.0" encoding="UTF-8" standalone="no"?>
<svg
   xmlns:dc="http://purl.org/dc/elements/1.1/"
   xmlns:cc="http://creativecommons.org/ns#"
   xmlns:rdf="http://www.w3.org/1999/02/22-rdf-syntax-ns#"
   xmlns:svg="http://www.w3.org/2000/svg"
   xmlns="http://www.w3.org/2000/svg"
   xmlns:sodipodi="http://sodipodi.sourceforge.net/DTD/sodipodi-0.dtd"
   xmlns:inkscape="http://www.inkscape.org/namespaces/inkscape"
   width="1em"
   height="1em"
   viewBox="0 0 16 16"
   class="bi bi-book-half"
   fill="currentColor"
   version="1.1"
   id="svg4"
   sodipodi:docname="book-half3.svg"
   inkscape:version="1.0.1 (3bc2e813f5, 2020-09-07)">
  <metadata
     id="metadata10">
    <rdf:RDF>
      <cc:Work
         rdf:about="">
        <dc:format>image/svg+xml</dc:format>
        <dc:type
           rdf:resource="http://purl.org/dc/dcmitype/StillImage" />
        <dc:title></dc:title>
      </cc:Work>
    </rdf:RDF>
  </metadata>
  <defs
     id="defs8" />
  <sodipodi:namedview
     pagecolor="#ffffff"
     bordercolor="#666666"
     borderopacity="1"
     objecttolerance="10"
     gridtolerance="10"
     guidetolerance="10"
     inkscape:pageopacity="0"
     inkscape:pageshadow="2"
     inkscape:window-width="1366"
     inkscape:window-height="705"
     id="namedview6"
     showgrid="false"
     inkscape:zoom="25.688117"
     inkscape:cx="9.0384737"
     inkscape:cy="8.1631046"
     inkscape:window-x="-8"
     inkscape:window-y="-8"
     inkscape:window-maximized="1"
     inkscape:current-layer="svg4"
     inkscape:document-rotation="0" />
  <path
     fill-rule="evenodd"
     d="M8.5 2.687v9.746c.935-.53 2.12-.603 3.213-.493 1.18.12 2.37.461 3.287.811V2.828c-.885-.37-2.154-.769-3.388-.893-1.33-.134-2.458.063-3.112.752zM8 1.783C7.015.936 5.587.81 4.287.94c-1.514.153-3.042.672-3.994 1.105A.5.5 0 0 0 0 2.5v11a.5.5 0 0 0 .707.455c.882-.4 2.303-.881 3.68-1.02 1.409-.142 2.59.087 3.223.877a.5.5 0 0 0 .78 0c.633-.79 1.814-1.019 3.222-.877 1.378.139 2.8.62 3.681 1.02A.5.5 0 0 0 16 13.5v-11a.5.5 0 0 0-.293-.455c-.952-.433-2.48-.952-3.994-1.105C10.413.809 8.985.936 8 1.783z"
     id="path2"
     style="fill:#000000;fill-opacity:1" />
  <text
     xml:space="preserve"
     style="font-size:5.33333px;line-height:1.25;font-family:'Arial Rounded MT Bold';-inkscape-font-specification:'Arial Rounded MT Bold, ';letter-spacing:0px;word-spacing:0px"
     x="21.37175"
     y="7.1628451"
     id="text836"><tspan
       sodipodi:role="line"
       id="tspan834"
       x="21.37175"
       y="7.1628451"></tspan></text>
  <rect
     style="opacity:0.99;fill:#000000;fill-opacity:1;stroke-width:29.5598;stroke-linecap:square"
     id="rect857"
     width="7.026403"
     height="11.024478"
     x="8"
     y="1.783" />
  <g
     aria-label="L"
     id="text840"
     style="font-size:5.33333px;line-height:1.25;font-family:'Ruge Boogie';-inkscape-font-specification:'Ruge Boogie';letter-spacing:0px;word-spacing:0px;fill:#f9f9f9"
     transform="matrix(1.1911378,0,0,1.0582135,2.6873852,-0.01334721)">
    <path
       d="m 3.3881741,6.7687774 q -0.106667,-0.8320026 -0.106667,-1.354671 0,-0.5226683 0.1280004,-1.1306702 Q 3.6121748,3.3661 4.20951,2.9074319 4.4015106,2.7474314 4.636178,2.7474314 q 0.2346674,0 0.6080019,0.3093343 0.3733345,0.3093343 0.3733345,1.4720046 0,1.2906708 -0.8106692,2.0800066 -0.426668,0.4160013 -1.0026698,0.4693348 0.021333,0.1600005 0.064,0.4053346 0.042667,0.2453341 0.053334,0.3520011 0.042667,0.4480014 0.042667,0.7360024 0,0.6186686 -0.2560008,1.2373372 0.1706672,0.1280004 0.4586681,0.384001 0.2986676,0.245334 0.3733345,0.298668 0.5546684,0.426668 1.1093368,0.426668 0.5653352,0 0.9493364,-0.458668 0.3840012,-0.4693351 0.3733345,-1.0026701 0,-1.248004 -0.5440017,-1.5360049 -0.1813339,-0.106667 -0.5546684,-0.106667 -0.3733346,0 -0.5760019,0.3413344 -0.1920006,0.3413344 -0.1920006,0.7360024 0,0.021333 0,0.042667 0,0.2240007 0.1600005,0.4480014 0.1600005,0.213334 0.320001,0.213334 0.2773343,-0.010667 0.4266681,-0.1706672 0.1493338,-0.1600005 0.1493338,-0.3306677 0.010667,-0.1706672 0.064,-0.2026673 0.064,-0.032 0.1173337,0 0.064,0.032 0.064,0.106667 -0.010667,0.3946679 -0.213334,0.6506687 -0.1920006,0.2453341 -0.5653352,0.2560008 -0.3626678,0 -0.5973352,-0.3306677 -0.2346674,-0.3306677 -0.2346674,-0.6506687 0,-0.021333 0,-0.032 0,-0.4800016 0.2986676,-0.9173363 0.2986676,-0.4480014 0.7680025,-0.4480014 0.4693348,0 0.7146689,0.1386671 0.3840012,0.213334 0.640002,0.7573357 0.2560008,0.5333351 0.2560008,1.0880035 0,0.5440013 -0.3626678,1.1093363 -0.533335,0.821336 -1.4400046,0.821336 -0.3626678,0 -0.7040022,-0.128 Q 4.636178,11.184791 4.4548441,11.046124 4.2735102,10.907457 3.9535092,10.630123 3.6441749,10.352789 3.4948411,10.235455 q -0.064,0.117334 -0.2026673,0.341334 -0.1280004,0.213334 -0.1813339,0.309335 -0.2560009,0.405334 -0.608002,0.405334 -0.5653351,0 -1.0560033,-0.405334 -0.49066822,-0.405335 -0.49066822,-0.9493366 0,-0.3733345 0.32000102,-0.6933355 0.320001,-0.3306677 0.6720021,-0.3306677 0.3093343,0 0.7253356,0.2240007 0.1173337,0.074667 0.3840013,0.2453341 0.2666675,0.1600005 0.3093343,0.1813339 0.1813339,-0.5120016 0.1813339,-0.9386696 0,-0.4266681 -0.1386671,-1.5573383 Q 3.0255063,6.9821114 2.7801721,6.7047772 2.6948385,6.6087769 2.5668381,6.4167763 2.4495044,6.2247757 2.4068376,6.1714422 q -0.042667,-0.053334 -0.021333,-0.096 0.032,-0.053334 0.085334,-0.053334 0.064,-0.010667 0.106667,0.032 H 2.5668381 Q 2.7161719,6.2567758 2.8015055,6.3634428 3.0575064,6.6621104 3.3881741,6.7687774 Z M 5.1908464,4.5287703 q 0,-0.746669 -0.3626678,-1.0560033 -0.1813339,-0.1493338 -0.2880009,-0.1493338 -0.096,0 -0.2453341,0.2026673 -0.4800015,0.6293353 -0.5760018,1.3440042 -0.032,0.2773342 -0.032,0.7360023 0,0.4480015 0.096,1.1946705 Q 4.2735102,6.7261106 4.5721778,6.4061096 5.1908464,5.7234408 5.1908464,4.5287703 Z M 1.9801696,9.2114518 q -0.3306677,0.010667 -0.533335,0.213334 -0.2026673,0.1920006 -0.2026673,0.5653351 0,0.3626681 0.3946679,0.6293351 0.4053346,0.266668 0.8640027,0.266668 0.1813339,0 0.394668,-0.426668 0.1600005,-0.224001 0.2773342,-0.458668 H 3.1641734 Q 3.0788398,9.9474541 2.8228389,9.7341201 2.1935036,9.2114518 1.9801696,9.2114518 Z"
       style="font-size:10.6667px;fill:#f9f9f9;fill-opacity:1"
       id="path854" />
  </g>
</svg>
