<?xml version="1.0" encoding="UTF-8" standalone="no"?>
<svg
   xmlns:dc="http://purl.org/dc/elements/1.1/"
   xmlns:cc="http://creativecommons.org/ns#"
   xmlns:rdf="http://www.w3.org/1999/02/22-rdf-syntax-ns#"
   xmlns:svg="http://www.w3.org/2000/svg"
   xmlns="http://www.w3.org/2000/svg"
   xmlns:sodipodi="http://sodipodi.sourceforge.net/DTD/sodipodi-0.dtd"
   xmlns:inkscape="http://www.inkscape.org/namespaces/inkscape"
   width="1em"
   height="1em"
   viewBox="0 0 16 16"
   class="bi bi-house-door"
   fill="currentColor"
   version="1.1"
   id="svg6"
   sodipodi:docname="home.svg"
   inkscape:version="1.0.1 (3bc2e813f5, 2020-09-07)">
  <metadata
     id="metadata12">
    <rdf:RDF>
      <cc:Work
         rdf:about="">
        <dc:format>image/svg+xml</dc:format>
        <dc:type
           rdf:resource="http://purl.org/dc/dcmitype/StillImage" />
      </cc:Work>
    </rdf:RDF>
  </metadata>
  <defs
     id="defs10" />
  <sodipodi:namedview
     pagecolor="#ffffff"
     bordercolor="#666666"
     borderopacity="1"
     objecttolerance="10"
     gridtolerance="10"
     guidetolerance="10"
     inkscape:pageopacity="0"
     inkscape:pageshadow="2"
     inkscape:window-width="1366"
     inkscape:window-height="705"
     id="namedview8"
     showgrid="false"
     inkscape:zoom="26.998154"
     inkscape:cx="8"
     inkscape:cy="8"
     inkscape:window-x="-8"
     inkscape:window-y="-8"
     inkscape:window-maximized="1"
     inkscape:current-layer="svg6" />
  <path
     fill-rule="evenodd"
     d="M7.646 1.146a.5.5 0 0 1 .708 0l6 6a.5.5 0 0 1 .146.354v7a.5.5 0 0 1-.5.5H9.5a.5.5 0 0 1-.5-.5v-4H7v4a.5.5 0 0 1-.5.5H2a.5.5 0 0 1-.5-.5v-7a.5.5 0 0 1 .146-.354l6-6zM2.5 7.707V14H6v-4a.5.5 0 0 1 .5-.5h3a.5.5 0 0 1 .5.5v4h3.5V7.707L8 2.207l-5.5 5.5z"
     id="path2"
     style="fill:#fffef6;fill-opacity:1" />
  <path
     fill-rule="evenodd"
     d="M13 2.5V6l-2-2V2.5a.5.5 0 0 1 .5-.5h1a.5.5 0 0 1 .5.5z"
     id="path4"
     style="fill:#fffef6;fill-opacity:1" />
</svg>
